{
  "accessors": [
    {
      "bufferView": 2,
      "componentType": 5126,
      "count": 35852,
      "max": [
        0.2956814765930176,
        0.06701336055994034,
        0.3105189800262451
      ],
      "min": [
        -0.29112690687179565,
        -0.07331106066703796,
        -0.3145202398300171
      ],
      "type": "VEC3"
    },
    {
      "bufferView": 2,
      "byteOffset": 430224,
      "componentType": 5126,
      "count": 35852,
      "max": [
        0.9998864531517029,
        0.9999458193778992,
        0.9999608397483826
      ],
      "min": [
        -0.9999557733535767,
        -0.9999960660934448,
        -0.9994388818740845
      ],
      "type": "VEC3"
    },
    {
      "bufferView": 1,
      "componentType": 5126,
      "count": 35852,
      "max": [
        0.9998766779899597,
        0.9958128929138184
      ],
      "min": [
        4.867204916081391e-05,
        7.405338692478836e-05
      ],
      "type": "VEC2"
    },
    {
      "bufferView": 0,
      "componentType": 5125,
      "count": 188250,
      "type": "SCALAR"
    }
  ],
  "asset": {
    "extras": {
      "author": "Kai Christmann (https://sketchfab.com/kai_am_rhein)",
      "license": "CC-BY-4.0 (http://creativecommons.org/licenses/by/4.0/)",
      "source": "https://sketchfab.com/3d-models/toy-giraffe-29097c30efea4c8f8cbd6dc64af37278",
      "title": "Toy Giraffe"
    },
    "generator": "Sketchfab-14.5.0",
    "version": "2.0"
  },
  "bufferViews": [
    {
      "buffer": 0,
      "byteLength": 753000,
      "name": "floatBufferViews",
      "target": 34963
    },
    {
      "buffer": 0,
      "byteLength": 286816,
      "byteOffset": 753000,
      "byteStride": 8,
      "name": "floatBufferViews",
      "target": 34962
    },
    {
      "buffer": 0,
      "byteLength": 860448,
      "byteOffset": 1039816,
      "byteStride": 12,
      "name": "floatBufferViews",
      "target": 34962
    }
  ],
  "buffers": [
    {
      "byteLength": 1900264,
      "uri": "scene.bin"
    }
  ],
  "images": [
    {
      "uri": "textures/material_baseColor.jpeg"
    }
  ],
  "materials": [
    {
      "doubleSided": true,
      "name": "material",
      "pbrMetallicRoughness": {
        "baseColorTexture": {
          "index": 0
        },
        "metallicFactor": 0.0,
        "roughnessFactor": 0.759091
      }
    }
  ],
  "meshes": [
    {
      "name": "Object_0",
      "primitives": [
        {
          "attributes": {
            "NORMAL": 1,
            "POSITION": 0,
            "TEXCOORD_0": 2
          },
          "indices": 3,
          "material": 0,
          "mode": 4
        }
      ]
    }
  ],
  "nodes": [
    {
      "children": [
        1
      ],
      "matrix": [
        1.0,
        0.0,
        0.0,
        0.0,
        0.0,
        2.220446049250313e-16,
        -1.0,
        0.0,
        0.0,
        1.0,
        2.220446049250313e-16,
        0.0,
        0.0,
        0.0,
        0.0,
        1.0
      ],
      "name": "Sketchfab_model"
    },
    {
      "children": [
        2
      ],
      "name": "root"
    },
    {
      "children": [
        3
      ],
      "matrix": [
        1.0,
        0.0,
        0.0,
        0.0,
        0.0,
        2.220446049250313e-16,
        1.0,
        0.0,
        0.0,
        -1.0,
        2.220446049250313e-16,
        0.0,
        0.0,
        0.0,
        0.0,
        1.0
      ],
      "name": "GLTF_SceneRootNode"
    },
    {
      "children": [
        4
      ],
      "matrix": [
        1.9999998807907104,
        0.0,
        0.0,
        0.0,
        0.0,
        -3.37174793862971e-07,
        1.9999999999999716,
        0.0,
        0.0,
        -1.9999999999999716,
        -3.37174793862971e-07,
        0.0,
        0.0,
        0.0,
        0.0,
        1.0
      ],
      "name": "baked_mesh_5"
    },
    {
      "children": [
        5
      ],
      "name": "Geom_3"
    },
    {
      "children": [
        6
      ],
      "name": "g0_2"
    },
    {
      "mesh": 0,
      "name": "Object_6"
    }
  ],
  "samplers": [
    {
      "magFilter": 9729,
      "minFilter": 9987,
      "wrapS": 10497,
      "wrapT": 10497
    }
  ],
  "scene": 0,
  "scenes": [
    {
      "name": "Sketchfab_Scene",
      "nodes": [
        0
      ]
    }
  ],
  "textures": [
    {
      "sampler": 0,
      "source": 0
    }
  ]
}
